<?xml version="1.0" standalone="no"?>
<!DOCTYPE svg PUBLIC "-//W3C//DTD SVG 20010904//EN"
 "http://www.w3.org/TR/2001/REC-SVG-20010904/DTD/svg10.dtd">
<svg version="1.0" xmlns="http://www.w3.org/2000/svg"
 width="1280.000000pt" height="720.000000pt" viewBox="0 0 1280.000000 720.000000"
 preserveAspectRatio="xMidYMid meet">

<g transform="translate(0.000000,720.000000) scale(0.100000,-0.100000)"
fill="#000000" stroke="none">
<path d="M0 7104 c0 -94 0 -95 23 -88 56 17 100 74 112 142 l7 42 -71 0 -71 0
0 -96z"/>
<path d="M190 7183 c-52 -21 -33 -125 30 -158 85 -44 146 1 111 81 -26 58 -96
96 -141 77z"/>
<path d="M12398 7163 c-37 -44 -29 -80 25 -113 55 -34 134 -24 157 20 14 27
-11 75 -50 95 -40 21 -113 20 -132 -2z"/>
<path d="M12685 7104 c-50 -26 -95 -64 -126 -107 -36 -50 -40 -122 -9 -172 34
-55 183 -118 234 -99 22 8 21 99 0 165 -14 41 -14 57 -5 92 33 117 -5 167 -94
121z"/>
<path d="M11120 7063 c-82 -15 -78 -98 7 -142 55 -28 143 4 143 53 0 35 -83
102 -118 95 -4 -1 -18 -4 -32 -6z"/>
<path d="M12254 7028 c-49 -23 -50 -91 -2 -122 77 -48 188 -17 188 54 0 46
-49 80 -113 79 -29 0 -62 -5 -73 -11z"/>
<path d="M11336 6969 c-124 -83 -160 -195 -90 -279 33 -38 73 -60 144 -76 103
-25 140 22 94 122 -27 59 -28 90 -8 192 14 73 -58 95 -140 41z"/>
<path d="M125 6970 c-35 -38 -1 -134 58 -167 38 -21 85 -16 103 12 55 84 -95
228 -161 155z"/>
<path d="M0 6820 c0 -107 0 -110 24 -116 100 -25 118 171 20 212 -19 8 -36 14
-39 14 -3 0 -5 -49 -5 -110z"/>
<path d="M10965 6923 c-33 -8 -65 -45 -65 -73 0 -57 76 -95 154 -78 36 7 50
16 61 38 18 35 8 69 -27 92 -26 17 -93 29 -123 21z"/>
<path d="M905 6898 c-11 -6 -27 -19 -35 -28 -38 -41 -78 -60 -130 -60 -113 0
-145 -60 -69 -132 73 -70 177 -110 232 -89 50 19 95 77 108 139 13 66 6 138
-18 164 -18 20 -58 23 -88 6z"/>
<path d="M12332 6853 c-12 -2 -38 -19 -57 -37 -66 -62 -38 -126 54 -126 70 0
131 51 131 110 0 34 -72 64 -128 53z"/>
<path d="M1058 6753 c-26 -7 -32 -56 -12 -99 46 -97 188 -99 170 -2 -14 73
-87 120 -158 101z"/>
<path d="M12505 6738 c-89 -49 -97 -135 -14 -153 34 -8 92 17 119 53 25 31 26
80 3 98 -22 16 -81 17 -108 2z"/>
<path d="M10994 6725 c-39 -17 -74 -60 -74 -91 0 -29 44 -64 81 -64 44 0 106
29 125 57 51 79 -34 141 -132 98z"/>
<path d="M11179 6615 c-33 -18 -59 -57 -59 -89 0 -84 145 -70 187 18 15 32 15
37 -1 60 -13 21 -24 26 -59 26 -23 -1 -54 -7 -68 -15z"/>
<path d="M670 6563 c-32 -41 -24 -127 14 -160 35 -30 57 -29 87 3 32 34 35
130 5 163 -28 31 -79 28 -106 -6z"/>
<path d="M1030 6562 c-69 -24 -45 -147 37 -190 59 -32 103 -4 103 64 0 36 -6
51 -32 79 -33 36 -80 56 -108 47z"/>
<path d="M840 6468 c-25 -41 -25 -81 -1 -134 12 -27 29 -45 50 -54 29 -12 35
-11 59 7 54 40 52 131 -4 187 -38 38 -79 35 -104 -6z"/>
<path d="M11730 6450 c-39 -39 -20 -92 44 -121 86 -38 172 13 136 81 -30 56
-140 80 -180 40z"/>
<path d="M10411 6448 c-36 -19 -47 -42 -35 -75 23 -66 137 -98 182 -50 25 27
27 36 10 71 -22 50 -109 80 -157 54z"/>
<path d="M12012 6388 c-92 -52 -152 -127 -152 -193 0 -40 28 -98 59 -122 32
-26 103 -54 149 -60 82 -9 105 43 61 141 -22 50 -22 78 -3 183 5 23 1 36 -15
52 -27 27 -48 26 -99 -1z"/>
<path d="M10628 6342 c-73 -57 -108 -110 -108 -168 0 -86 94 -163 211 -172 51
-4 57 -2 73 23 17 26 17 29 -4 84 -31 77 -35 115 -20 177 18 76 5 104 -49 104
-32 0 -52 -9 -103 -48z"/>
<path d="M11576 6309 c-53 -42 -19 -120 59 -135 52 -9 104 6 128 38 17 23 18
31 8 57 -25 58 -141 83 -195 40z"/>
<path d="M10275 6313 c-33 -8 -65 -44 -65 -74 0 -33 50 -79 88 -80 78 -3 126
17 136 57 16 64 -72 118 -159 97z"/>
<path d="M4896 6166 c-84 -26 -100 -37 -109 -76 l-6 -25 157 0 c124 0 170 -4
221 -19 72 -22 69 -3 32 -176 -11 -52 -21 -108 -21 -124 0 -28 1 -28 39 -22
22 3 57 12 78 19 33 11 39 17 45 52 4 22 19 99 34 170 37 183 38 173 -21 197
-40 16 -81 20 -210 24 -148 4 -166 2 -239 -20z"/>
<path d="M11680 6140 c-61 -11 -110 -57 -110 -105 0 -29 42 -55 88 -55 73 0
132 43 132 95 0 52 -42 77 -110 65z"/>
<path d="M10316 6120 c-64 -20 -100 -83 -72 -126 22 -32 76 -41 131 -20 49 19
62 32 74 73 17 59 -54 98 -133 73z"/>
<path d="M550 6113 c-8 -3 -37 -23 -63 -45 -50 -42 -94 -57 -159 -58 -50 0
-82 -31 -73 -68 10 -40 59 -86 131 -122 77 -39 142 -39 188 1 47 41 59 76 60
172 1 82 -1 90 -23 108 -24 19 -35 22 -61 12z"/>
<path d="M9040 6084 c-162 -19 -209 -28 -256 -45 -47 -18 -54 -24 -54 -47 l0
-27 148 -1 c158 -1 207 -11 198 -42 -10 -32 -26 -265 -36 -512 -11 -283 -11
-713 0 -610 20 178 86 336 195 463 l67 79 9 196 c5 109 14 260 20 337 6 77 12
151 13 164 1 21 -5 26 -34 32 -44 10 -224 18 -270 13z"/>
<path d="M2658 6045 c-105 -17 -187 -41 -330 -97 -107 -41 -108 -41 -108 -75
0 -18 5 -33 11 -33 6 0 49 14 96 30 241 85 582 93 813 19 177 -58 316 -172
389 -320 52 -107 72 -203 73 -351 l0 -118 35 57 c19 32 50 77 70 101 l36 44
-6 96 c-23 343 -218 558 -578 637 -105 23 -389 29 -501 10z"/>
<path d="M11833 6019 c-102 -50 -72 -173 35 -141 57 17 92 56 92 103 0 61 -50
76 -127 38z"/>
<path d="M10522 6023 c-12 -2 -38 -19 -57 -37 -59 -56 -42 -126 31 -126 61 0
116 39 129 92 5 21 1 33 -19 52 -24 25 -37 28 -84 19z"/>
<path d="M12550 6023 c-104 -8 -181 -25 -208 -48 -15 -12 -47 -26 -72 -30 -49
-8 -173 -61 -219 -95 -26 -18 -38 -19 -99 -14 -119 11 -302 -26 -352 -71 -16
-15 -17 -21 -4 -68 21 -82 80 -187 135 -244 49 -51 50 -52 40 -90 -14 -49 -14
-177 0 -226 10 -37 9 -39 -46 -100 -64 -70 -106 -146 -129 -233 -15 -58 -15
-59 7 -76 50 -40 145 -61 287 -63 133 -2 136 -3 185 -34 64 -41 142 -69 219
-80 117 -17 215 18 305 106 32 32 63 66 68 76 9 18 12 18 68 -2 71 -25 65 -25
65 -3 0 14 -18 26 -67 45 -64 26 -69 26 -81 10 -100 -142 -185 -196 -312 -196
-80 -1 -177 30 -257 82 l-58 37 -92 -4 c-102 -5 -206 10 -271 38 -39 17 -42
22 -37 47 16 73 135 263 164 263 4 0 13 -10 19 -22 15 -33 15 -6 -3 85 -8 43
-15 107 -15 142 0 35 7 99 15 142 18 93 18 95 1 65 -13 -23 -13 -23 -64 32
-55 61 -109 160 -118 218 l-6 36 68 23 c57 19 93 23 210 24 128 1 143 3 172
24 48 34 158 81 205 87 32 5 46 2 56 -10 9 -11 10 -16 2 -16 -17 0 -13 -51 6
-65 14 -10 15 -17 7 -36 -14 -31 -1 -60 37 -83 32 -19 186 -51 294 -61 39 -3
82 -9 98 -11 22 -5 27 -2 27 15 0 15 -6 21 -22 21 -13 0 -72 5 -133 10 -227
22 -313 60 -258 116 16 15 15 18 -10 36 -33 24 -35 44 -5 54 l21 6 -22 18
c-14 10 -22 24 -19 36 5 29 77 42 270 47 168 4 173 5 176 25 3 21 1 22 -100
20 -57 -1 -123 -3 -148 -5z"/>
<path d="M665 5937 c-23 -35 -6 -88 40 -123 75 -57 144 -34 132 43 -9 53 -53
94 -110 100 -40 5 -47 3 -62 -20z"/>
<path d="M12440 5920 c0 -5 7 -10 16 -10 8 0 12 5 9 10 -3 6 -10 10 -16 10 -5
0 -9 -4 -9 -10z"/>
<path d="M12528 5906 c-22 -16 -19 -115 3 -129 21 -13 66 14 78 46 17 44 -46
109 -81 83z"/>
<path d="M12422 5849 c2 -6 8 -10 13 -10 5 0 11 4 13 10 2 6 -4 11 -13 11 -9
0 -15 -5 -13 -11z"/>
<path d="M305 5776 c-48 -48 -45 -127 6 -170 39 -33 45 -33 80 5 23 25 29 40
29 76 0 97 -60 144 -115 89z"/>
<path d="M12441 5771 c-10 -6 -10 -10 -1 -16 13 -8 24 -1 19 14 -3 6 -10 7
-18 2z"/>
<path d="M632 5754 c-52 -36 -5 -158 72 -184 47 -15 72 -6 85 32 19 54 -13
124 -69 153 -37 19 -60 19 -88 -1z"/>
<path d="M11905 5710 c-59 -44 -59 -44 -130 -15 -37 14 -69 24 -71 22 -5 -5
78 -59 119 -78 27 -12 30 -10 85 44 62 62 60 74 -3 27z"/>
<path d="M478 5687 c-24 -18 -36 -75 -26 -120 13 -60 64 -102 104 -87 66 25
72 133 12 198 -24 24 -64 28 -90 9z"/>
<path d="M12180 5669 c-76 -31 -100 -97 -57 -159 22 -34 102 -84 118 -74 24
14 7 45 -36 65 -46 22 -71 51 -62 72 5 12 53 39 90 51 12 4 17 14 15 28 -3 26
-30 32 -68 17z"/>
<path d="M4234 5631 c-63 -18 -174 -74 -231 -118 -37 -28 -38 -42 -2 -23 101
55 308 69 434 30 39 -12 96 -40 128 -61 53 -37 61 -39 95 -30 95 25 269 44
412 45 l154 1 12 -54 c28 -122 63 -477 64 -633 0 -43 2 -78 4 -78 2 0 27 15
55 34 28 19 67 40 86 46 l36 12 -2 100 c-3 99 -3 100 -33 120 -57 39 -108 93
-131 139 l-24 46 22 43 c12 24 45 66 74 94 l51 51 -16 90 c-8 50 -20 94 -26
98 -21 16 -327 -1 -479 -27 l-148 -26 -22 21 c-31 29 -140 78 -200 90 -80 15
-244 10 -313 -10z"/>
<path d="M5996 5640 c-118 -14 -294 -79 -361 -135 l-20 -17 20 7 c43 14 171
35 248 41 104 7 264 -16 342 -50 82 -37 151 -91 190 -149 l34 -50 3 79 3 78
63 19 c34 10 62 22 62 26 0 13 -95 80 -142 100 -115 49 -285 69 -442 51z"/>
<path d="M1325 5628 c-11 -6 -37 -26 -57 -44 -39 -35 -91 -54 -148 -54 -48 0
-80 -24 -80 -59 0 -60 126 -150 222 -159 41 -4 53 0 83 22 55 42 76 94 76 183
0 61 -4 80 -18 94 -25 24 -54 30 -78 17z"/>
<path d="M2675 5618 c-5 -18 -24 -324 -35 -583 -12 -278 -13 -605 -1 -605 5 0
30 15 55 33 l47 32 5 305 c2 168 11 419 20 557 8 139 13 257 9 263 -9 15 -95
13 -100 -2z"/>
<path d="M9941 5608 c-61 -8 -188 -52 -241 -83 -23 -13 -15 -14 90 -15 130 0
203 -15 297 -60 67 -33 159 -124 194 -192 97 -189 72 -556 -55 -806 -66 -131
-171 -254 -263 -309 -24 -14 -43 -28 -43 -32 0 -25 217 35 298 82 145 84 268
234 341 417 55 139 72 224 78 381 7 178 -5 258 -54 358 -105 212 -331 304
-642 259z"/>
<path d="M6850 5600 c-140 -24 -203 -50 -198 -83 3 -20 7 -22 58 -17 83 8 218
6 284 -3 l58 -9 -6 -46 c-4 -26 -9 -73 -13 -106 l-6 -58 53 56 c29 31 81 74
114 95 61 38 62 39 72 100 8 51 8 61 -6 67 -24 11 -349 14 -410 4z"/>
<path d="M7495 5572 c-58 -22 -135 -68 -135 -81 0 -5 37 -11 83 -13 99 -4 158
-30 219 -96 67 -73 117 -220 119 -350 l0 -47 17 40 c44 102 88 172 156 245 20
22 36 44 36 49 0 28 -53 125 -91 166 -70 76 -125 98 -249 102 -84 3 -115 0
-155 -15z"/>
<path d="M8425 5532 c-54 -23 -128 -63 -123 -66 1 -2 42 -1 91 2 l87 5 0 38
c0 44 0 44 -55 21z"/>
<path d="M1450 5461 c-25 -47 5 -114 65 -143 49 -24 88 -19 106 14 17 32 -5
92 -45 123 -42 32 -110 35 -126 6z"/>
<path d="M12273 5363 c-22 -8 -14 -23 11 -23 21 0 36 -16 36 -41 0 -4 -13 -15
-30 -24 -38 -20 -38 -30 1 -50 40 -21 38 -58 -4 -63 -33 -4 -31 -25 2 -30 37
-6 64 26 57 68 -8 44 -8 56 0 101 5 31 2 39 -17 53 -24 16 -35 18 -56 9z"/>
<path d="M1102 5313 c-21 -8 -42 -60 -42 -106 0 -60 29 -97 76 -97 48 0 77 45
71 113 -6 72 -52 112 -105 90z"/>
<path d="M1416 5274 c-10 -9 -16 -33 -16 -60 0 -38 6 -51 38 -84 67 -72 142
-58 142 26 0 88 -113 169 -164 118z"/>
<path d="M4159 5253 c-18 -16 -47 -58 -65 -98 -33 -72 -62 -180 -51 -191 10
-11 175 -10 186 1 15 16 18 89 4 91 -7 1 -20 2 -28 3 -21 2 -19 28 11 122 21
66 23 83 12 90 -21 14 -35 10 -69 -18z"/>
<path d="M5822 5235 c-26 -22 -58 -81 -76 -142 -7 -23 1 -26 117 -38 54 -5 50
-12 67 98 9 61 9 81 0 93 -19 22 -75 17 -108 -11z"/>
<path d="M1250 5188 c-23 -39 -25 -76 -6 -122 26 -62 83 -84 124 -46 41 39 23
163 -27 190 -38 20 -70 12 -91 -22z"/>
<path d="M9664 5200 c-106 -42 -154 -497 -78 -748 31 -103 93 -141 143 -88 69
73 108 360 82 607 -13 116 -27 164 -59 199 -31 33 -58 42 -88 30z"/>
<path d="M8415 5168 c-106 -58 -153 -185 -162 -429 -8 -229 25 -357 100 -384
44 -15 77 10 116 89 l35 68 -1 252 c-1 138 -2 288 -2 334 l-1 82 -32 0 c-18 0
-42 -6 -53 -12z"/>
<path d="M7145 5076 c-45 -20 -81 -61 -115 -131 -29 -59 -32 -75 -40 -222 -12
-201 -13 -680 -1 -687 13 -9 205 26 213 38 14 21 8 48 -12 53 -24 6 -24 9 -6
120 9 54 17 206 20 396 5 245 9 314 21 337 38 73 -8 128 -80 96z"/>
<path d="M12170 5041 c-19 -11 -44 -28 -54 -40 -40 -44 -9 -129 62 -169 52
-29 72 -28 72 2 0 19 -10 29 -45 46 -47 23 -71 52 -59 71 4 6 31 22 60 35 30
13 54 28 54 33 0 44 -33 52 -90 22z"/>
<path d="M4702 4896 c-16 -80 -16 -85 8 -79 21 6 25 44 11 108 -6 27 -8 25
-19 -29z"/>
<path d="M5845 4929 c-99 -10 -247 -51 -284 -80 -13 -11 -30 -19 -38 -19 -8 0
-12 -4 -9 -9 4 -5 21 -5 43 1 21 5 130 12 243 16 l205 7 3 24 c2 12 1 34 -2
47 -7 27 -9 27 -161 13z"/>
<path d="M11815 4853 c-63 -33 -128 -77 -117 -81 6 -2 42 10 81 26 62 26 72
28 83 15 18 -22 89 -65 96 -59 5 6 -98 116 -108 116 -3 -1 -18 -8 -35 -17z"/>
<path d="M3470 4720 c0 -18 -132 -204 -194 -274 -33 -38 -96 -100 -139 -138
-42 -37 -73 -68 -68 -68 18 0 201 147 272 219 116 119 133 145 139 212 3 33 2
59 -2 59 -4 0 -8 -4 -8 -10z"/>
<path d="M9021 4704 c0 -11 3 -14 6 -6 3 7 2 16 -1 19 -3 4 -6 -2 -5 -13z"/>
<path d="M4000 4623 c0 -160 38 -276 100 -308 48 -25 79 -19 121 24 l39 39
-34 34 c-41 41 -76 144 -76 224 0 61 2 60 -87 69 l-63 6 0 -88z"/>
<path d="M9021 4445 c0 -121 2 -264 6 -319 l6 -98 71 6 c39 4 98 13 131 19 72
15 82 35 31 66 -50 32 -116 108 -153 179 -35 67 -73 195 -74 251 0 20 -4 54
-8 76 -6 26 -9 -36 -10 -180z"/>
<path d="M4494 4633 c-3 -10 -13 -36 -22 -57 -14 -34 -15 -40 -2 -44 83 -28
250 -140 250 -169 0 -28 -69 -121 -129 -173 -33 -30 -59 -56 -56 -58 8 -8 164
82 209 121 l47 39 -6 97 c-10 156 -9 155 -63 184 -61 33 -137 63 -185 71 -31
6 -38 4 -43 -11z"/>
<path d="M6461 4542 c-7 -48 -31 -179 -53 -291 -21 -112 -36 -206 -33 -210 4
-3 43 -8 87 -10 l80 -3 -6 38 c-10 67 -35 324 -42 442 -4 62 -10 114 -13 117
-4 2 -13 -35 -20 -83z"/>
<path d="M5877 4595 c-66 -18 -93 -38 -118 -87 -31 -61 -23 -132 20 -170 25
-23 41 -28 81 -28 110 0 159 54 103 112 -25 26 -28 37 -28 91 0 34 4 70 9 80
10 20 1 21 -67 2z"/>
<path d="M7740 4425 c-1 -16 -27 -187 -35 -226 l-7 -36 68 -2 c37 -1 72 -5 77
-8 11 -7 10 -3 -26 64 -15 29 -38 89 -51 135 -14 46 -25 79 -26 73z"/>
<path d="M5270 4246 c0 -2 -6 -37 -14 -78 -22 -111 -77 -266 -126 -352 -40
-70 -141 -186 -161 -186 -5 0 -9 -4 -9 -9 0 -6 24 -3 53 6 153 45 267 168 353
382 33 82 43 131 25 131 -4 0 -34 25 -65 55 -31 30 -56 53 -56 51z"/>
<path d="M8548 4185 c-15 -27 -42 -67 -62 -89 -20 -21 -36 -41 -36 -44 0 -8
133 7 141 15 5 5 3 44 -4 88 l-13 80 -26 -50z"/>
<path d="M4585 4093 c-64 -43 -69 -51 -57 -78 6 -13 29 -36 52 -51 32 -22 48
-26 81 -21 43 6 75 28 85 59 4 14 -7 32 -42 68 -27 28 -55 50 -64 50 -8 0 -33
-12 -55 -27z"/>
<path d="M7600 3830 c-111 -15 -214 -56 -222 -88 -5 -18 3 -20 121 -25 150 -6
268 -36 255 -65 -15 -36 -74 -238 -74 -255 0 -15 7 -18 37 -15 33 3 39 7 47
36 l9 32 67 0 68 0 6 43 c4 23 22 92 40 152 18 61 35 117 37 125 8 28 -170 71
-286 68 -27 0 -75 -4 -105 -8z"/>
<path d="M3065 3794 c-80 -12 -134 -26 -143 -37 -5 -7 -8 -26 -5 -43 l5 -32
121 -4 c123 -5 176 -17 264 -60 l41 -21 6 -81 c5 -66 23 -538 27 -691 1 -34 4
-26 23 50 42 166 56 206 79 214 19 7 20 14 19 127 -3 148 -11 349 -18 431 -5
57 -8 63 -39 82 -81 47 -275 81 -380 65z"/>
<path d="M6315 3791 c-90 -15 -179 -42 -222 -67 -75 -44 -61 -49 135 -50 193
0 258 -13 255 -48 -1 -12 4 -16 15 -12 10 3 51 17 92 32 61 22 98 28 201 32
120 4 241 -8 279 -28 13 -7 15 -22 8 -107 -11 -161 -39 -918 -33 -911 2 1 8
50 15 108 11 110 27 229 36 268 5 25 39 43 129 72 l50 16 3 86 3 87 -48 3
c-46 3 -47 4 -61 48 -19 58 -22 313 -5 331 6 6 40 21 75 33 58 20 63 24 63 51
0 29 -3 31 -60 42 -157 33 -330 25 -465 -21 -90 -31 -86 -31 -92 -8 -4 14 -22
22 -64 31 -77 16 -246 22 -309 12z"/>
<path d="M2135 3714 c-70 -12 -154 -36 -207 -61 -54 -25 -58 -29 -58 -61 0
-28 3 -33 18 -27 90 35 342 47 462 22 l55 -12 -1 -90 c-1 -49 -7 -218 -13
-374 -7 -156 -10 -286 -7 -289 3 -2 40 1 83 7 43 7 143 18 223 24 l145 12 3
38 c2 27 -1 39 -13 43 -9 4 -87 -2 -173 -13 -86 -11 -158 -19 -160 -17 -2 1 2
145 9 321 7 175 13 347 13 383 l1 64 -55 14 c-57 13 -273 24 -325 16z"/>
<path d="M8006 3549 c-10 -35 -26 -97 -26 -101 0 -3 28 -8 63 -12 77 -7 279
-45 294 -54 8 -5 2 -45 -17 -130 -16 -68 -30 -138 -32 -155 l-3 -32 110 0 c61
0 151 2 200 5 102 6 95 14 82 -89 l-6 -54 46 47 c53 54 106 92 181 130 43 22
52 31 52 53 0 26 0 26 -57 19 -74 -10 -342 -18 -352 -11 -9 5 31 211 49 260
23 62 14 67 -180 101 -174 30 -398 43 -404 23z"/>
<path d="M5412 3279 c-75 -19 -232 -95 -232 -112 0 -5 8 -6 18 -2 38 14 156
35 203 35 76 0 197 -28 265 -60 72 -35 154 -114 185 -177 12 -24 22 -43 23
-41 0 2 0 73 -2 158 l-3 156 -57 22 c-31 12 -77 26 -102 32 -72 15 -217 10
-298 -11z"/>
<path d="M10570 3290 c-63 -13 -187 -59 -199 -74 -9 -10 13 -14 106 -19 217
-11 346 -65 471 -197 38 -40 98 -155 108 -206 5 -27 2 -38 -12 -48 -15 -12 -5
-12 60 0 98 17 104 19 199 62 42 19 77 40 77 47 0 33 -36 126 -72 182 -71 113
-191 199 -334 239 -69 19 -332 28 -404 14z"/>
<path d="M9375 3275 c-77 -15 -158 -42 -220 -74 l-40 -20 125 6 c287 13 483
-68 584 -241 l39 -66 19 37 c31 57 77 110 134 154 l52 40 -21 23 c-65 69 -187
127 -307 146 -88 13 -279 11 -365 -5z"/>
<path d="M3735 3214 c-11 -3 -45 -9 -76 -15 -50 -10 -58 -15 -73 -45 -9 -19
-16 -36 -16 -38 0 -1 50 0 111 2 115 5 233 -9 264 -32 15 -11 15 -20 1 -121
-27 -200 -39 -414 -33 -585 11 -279 47 -421 110 -428 24 -3 30 2 48 43 30 67
32 102 14 175 -12 47 -18 131 -22 307 -6 239 2 389 32 603 7 52 11 98 9 102
-16 26 -284 49 -369 32z"/>
<path d="M7655 3213 c-135 -7 -291 -49 -335 -90 -13 -13 -1 -14 90 -12 63 2
111 8 120 15 12 10 28 10 75 -2 98 -23 102 -21 108 34 3 26 2 49 -1 52 -4 3
-29 4 -57 3z"/>
<path d="M6457 3045 c-13 -295 -29 -1477 -20 -1486 5 -5 32 -6 61 -2 39 4 52
10 52 22 0 9 -4 63 -10 121 -22 243 -51 818 -73 1450 -1 36 -5 -11 -10 -105z"/>
<path d="M4605 3156 c-116 -16 -248 -45 -305 -67 -32 -12 -46 -23 -48 -39 -4
-26 -25 -26 201 5 64 9 139 15 165 13 l47 -3 8 -55 c4 -30 11 -113 15 -184 l7
-130 29 53 c15 29 51 82 78 118 l51 66 -7 86 c-3 47 -10 100 -14 116 -8 29
-10 30 -73 32 -35 1 -104 -4 -154 -11z"/>
<path d="M5284 2876 c-43 -45 -72 -110 -101 -219 -8 -32 -12 -61 -9 -64 10
-10 193 -16 198 -7 3 5 9 28 13 52 6 39 5 42 -15 42 -21 0 -22 3 -16 41 4 23
15 66 26 96 20 58 16 85 -16 97 -28 11 -37 7 -80 -38z"/>
<path d="M9186 2870 c-18 -17 -43 -50 -55 -75 -21 -44 -28 -97 -13 -93 4 1 39
-6 79 -15 40 -9 92 -17 117 -17 l46 0 0 48 c0 64 -26 137 -57 162 -37 29 -76
25 -117 -10z"/>
<path d="M10382 2860 c-31 -29 -38 -80 -16 -125 20 -43 77 -88 241 -189 138
-85 261 -189 308 -259 100 -147 99 -352 -1 -503 -38 -58 -123 -132 -196 -173
-26 -14 -48 -29 -48 -33 0 -9 71 1 169 23 161 37 314 137 400 263 37 54 71
176 71 255 0 61 -25 152 -60 219 -30 58 -147 171 -249 241 -138 93 -136 93
-226 76 -42 -8 -96 -15 -119 -15 l-43 0 -13 58 c-26 118 -80 182 -154 182 -28
0 -49 -7 -64 -20z"/>
<path d="M7636 2798 c-19 -58 -62 -450 -80 -733 -24 -361 -25 -385 -17 -389
12 -8 151 24 190 42 l36 17 3 82 c2 71 -1 89 -22 132 -73 142 -102 357 -89
653 4 101 8 187 8 192 0 15 -25 19 -29 4z"/>
<path d="M8334 2763 l-101 -4 -13 -112 c-20 -170 -17 -537 3 -608 25 -84 62
-89 85 -12 10 35 32 193 32 237 0 15 5 17 30 12 17 -3 42 -9 58 -12 l27 -6 -3
114 c-3 89 10 322 21 382 2 13 -7 13 -139 9z"/>
<path d="M1003 2690 c-39 -24 -63 -67 -63 -115 0 -67 55 -86 116 -40 58 44 66
137 15 164 -26 15 -31 14 -68 -9z"/>
<path d="M1184 2656 c-39 -38 -44 -49 -44 -88 0 -41 3 -47 29 -58 91 -37 216
120 139 174 -40 28 -76 20 -124 -28z"/>
<path d="M5864 2515 l-20 -95 22 0 c28 0 30 8 24 108 l-5 83 -21 -96z"/>
<path d="M9320 2543 c-80 -6 -170 -23 -251 -49 -83 -26 -109 -52 -41 -40 20 3
108 6 195 6 l157 0 0 45 c0 25 -3 44 -7 43 -5 -1 -28 -3 -53 -5z"/>
<path d="M1321 2519 c-50 -20 -80 -50 -87 -85 -9 -51 17 -76 80 -76 85 0 152
66 132 130 -12 36 -75 51 -125 31z"/>
<path d="M863 2461 c-24 -11 -43 -27 -43 -35 0 -8 -3 -22 -6 -31 -5 -11 13
-34 60 -78 60 -56 68 -69 84 -127 13 -50 23 -68 44 -79 25 -14 29 -14 55 5 45
33 96 146 97 213 1 60 -14 89 -63 127 -39 29 -171 32 -228 5z"/>
<path d="M9886 2374 c-4 -40 -16 -126 -26 -191 -26 -153 -26 -157 3 -149 48
14 184 36 223 36 l41 0 6 -47 c19 -150 81 -217 199 -215 63 1 99 18 116 58 28
59 4 131 -65 195 -79 74 -103 81 -201 55 l-54 -15 6 67 7 67 -43 25 c-23 14
-79 61 -124 105 l-82 81 -6 -72z"/>
<path d="M2377 2393 c-4 -3 -7 -150 -7 -325 l0 -318 43 6 c23 4 47 11 54 16 9
7 12 91 13 319 l1 309 -49 0 c-27 0 -52 -3 -55 -7z"/>
<path d="M8590 2324 c0 -22 -3 -50 -6 -64 -5 -24 -5 -24 18 5 12 17 33 41 46
54 27 27 26 30 -22 38 l-36 6 0 -39z"/>
<path d="M1201 2294 c-51 -43 -38 -108 24 -120 74 -14 155 28 155 81 0 64
-118 90 -179 39z"/>
<path d="M5132 2198 c9 -186 52 -283 134 -304 34 -9 88 19 116 59 20 28 20 28
0 50 -42 46 -69 131 -76 240 -2 32 -6 60 -8 61 -1 2 -41 7 -87 11 l-84 7 5
-124z"/>
<path d="M5665 2213 c-32 -77 -32 -79 27 -109 65 -33 157 -94 181 -122 18 -19
18 -21 -4 -63 -29 -58 -120 -151 -193 -200 -34 -21 -56 -39 -50 -39 44 0 232
91 287 139 19 16 19 40 1 278 l-6 73 -45 20 c-50 22 -112 44 -155 54 -25 6
-29 2 -43 -31z"/>
<path d="M9251 2204 c-101 -27 -151 -86 -151 -176 0 -62 29 -104 82 -118 70
-20 162 4 172 44 2 11 8 76 12 144 l7 122 -34 -1 c-19 0 -58 -7 -88 -15z"/>
<path d="M28 2042 c-27 -16 -28 -20 -28 -93 0 -86 10 -98 67 -74 67 28 107
129 67 169 -20 21 -72 20 -106 -2z"/>
<path d="M7031 1808 l-1 -258 28 0 c47 1 184 28 195 39 6 6 7 11 2 12 -6 0
-46 2 -89 5 -44 2 -83 7 -87 11 -4 5 -13 87 -19 183 -19 288 -28 290 -29 8z"/>
<path d="M4545 1967 c-31 -63 -59 -102 -122 -166 -46 -46 -83 -86 -83 -87 0
-2 20 5 45 16 90 39 191 115 230 175 11 17 11 30 -3 83 -9 34 -19 62 -22 61
-3 0 -23 -37 -45 -82z"/>
<path d="M3401 1763 l-1 -221 65 -4 c77 -4 73 -9 73 118 1 69 -3 97 -16 116
-79 117 -95 144 -107 176 -12 33 -14 14 -14 -185z"/>
<path d="M121 1873 c-35 -17 -71 -65 -71 -95 0 -10 10 -27 22 -38 45 -42 159
-13 187 48 38 81 -43 131 -138 85z"/>
<path d="M683 1835 c-88 -37 -96 -185 -10 -185 51 0 107 68 107 127 -1 54 -44
80 -97 58z"/>
<path d="M870 1814 c-61 -52 -80 -129 -38 -158 31 -22 66 -20 104 6 48 33 69
75 65 130 -3 52 -80 64 -131 22z"/>
<path d="M8558 1775 l-56 -55 31 0 c32 0 135 24 144 34 5 5 -47 74 -57 75 -3
0 -30 -24 -62 -54z"/>
<path d="M9798 1823 c-14 -24 -41 -194 -32 -202 5 -6 61 -13 124 -16 106 -6
113 -5 95 10 -55 43 -130 125 -155 168 -15 27 -30 45 -32 40z"/>
<path d="M1552 1695 c-29 -8 -63 -20 -74 -26 -15 -8 -322 -76 -355 -79 -1 0
-3 12 -5 27 -7 62 -110 67 -175 10 -30 -27 -34 -36 -31 -68 3 -34 1 -39 -22
-44 -14 -3 -33 -8 -42 -11 -11 -3 -19 3 -23 18 -19 61 -83 98 -173 98 -99 0
-162 -31 -162 -79 1 -29 12 -47 53 -78 l28 -22 -23 -12 c-12 -6 -57 -15 -101
-20 -115 -11 -172 -33 -198 -75 -14 -23 -39 -43 -73 -59 -86 -38 -91 -45 -89
-113 3 -94 65 -318 118 -422 42 -83 142 -157 192 -144 17 5 22 17 28 77 5 52
10 66 15 52 5 -11 9 -35 9 -53 1 -50 39 -189 66 -241 33 -65 98 -123 177 -157
59 -25 67 -32 68 -56 0 -31 -19 -175 -26 -200 -4 -15 1 -18 29 -18 34 0 34 1
46 57 6 31 11 79 11 107 1 42 3 48 12 32 11 -19 6 -145 -7 -178 -7 -17 10 -18
266 -18 l274 0 -90 55 c-49 30 -124 72 -165 92 -41 21 -81 43 -88 50 -26 25
-71 43 -189 74 -126 33 -189 62 -223 106 -19 24 -21 38 -18 94 7 133 93 249
236 320 52 25 81 32 149 37 113 7 135 22 193 137 55 111 78 126 192 133 115 7
143 -8 198 -106 23 -43 49 -85 58 -94 18 -22 63 -23 152 -3 160 35 217 15 320
-114 58 -73 85 -131 76 -168 -8 -29 -118 -142 -193 -195 -45 -33 -93 -100 -93
-132 0 -34 -177 -192 -306 -273 -15 -9 42 -12 270 -12 l288 -1 -7 37 c-6 34
-35 121 -84 253 -33 89 -29 112 27 153 60 44 144 133 166 175 9 17 16 51 16
75 0 41 -23 185 -37 231 -4 14 -1 18 11 13 31 -12 48 21 41 82 -24 206 -105
516 -148 572 -17 22 -166 68 -200 62 -22 -4 -28 -1 -36 21 -11 26 -19 27 -67
4 -16 -7 -30 -6 -53 6 -45 24 -145 29 -209 11z m191 -57 c58 -25 157 -93 157
-109 0 -5 -19 3 -42 19 -101 69 -148 87 -228 85 -41 0 -95 -8 -119 -17 -49
-18 -66 -15 -29 5 80 43 183 50 261 17z m293 -63 c12 -8 25 -11 29 -7 3 4 5 2
3 -3 -1 -6 7 -21 20 -35 19 -20 30 -50 18 -50 -2 0 -21 17 -42 38 -22 21 -50
45 -64 54 -23 16 -23 17 -5 17 11 1 30 -6 41 -14z m-386 -90 c0 -3 -15 -11
-34 -19 -43 -18 -109 -78 -148 -134 -36 -52 -47 -49 -20 5 24 46 100 119 145
138 33 15 57 19 57 10z m-588 -17 c8 -4 -7 -8 -37 -8 -94 -1 -365 -48 -439
-76 -13 -5 -17 -4 -12 4 12 20 218 72 336 85 57 7 138 4 152 -5z m701 -31
c126 -53 227 -339 137 -387 -17 -9 -18 -6 -13 63 4 47 1 88 -7 112 -16 50 -75
114 -125 136 -43 20 -105 25 -105 9 0 -5 4 -10 8 -10 15 0 53 -79 50 -103 -3
-19 -9 -22 -50 -21 -32 0 -58 8 -86 26 -76 51 -56 113 53 164 57 27 92 30 138
11z m-1304 -164 c0 -21 -4 -56 -8 -78 l-7 -40 -13 69 c-10 56 -10 71 1 77 23
15 28 10 27 -28z m596 27 c-3 -5 -24 -10 -46 -10 -46 0 -220 -25 -266 -39 -19
-6 -33 -6 -33 -1 0 9 67 31 150 48 62 14 203 15 195 2z m88 -75 c9 -20 17 -38
17 -40 0 -4 -82 55 -99 71 -2 2 11 4 30 4 30 0 38 -5 52 -35z m-346 -19 c-4
-10 5 -16 28 -20 46 -9 97 -61 93 -95 -5 -47 -135 -89 -188 -61 -23 12 -23 12
-18 -38 3 -27 14 -68 25 -91 11 -23 17 -41 14 -41 -16 0 -82 79 -100 120 -22
47 -29 162 -12 189 5 7 37 21 72 31 79 23 93 24 86 6z m982 -35 c17 -11 7 -41
-13 -41 -19 0 -29 17 -22 35 6 17 15 18 35 6z m-804 -156 c0 -30 -39 -27 -43
3 -3 20 0 23 20 20 15 -2 23 -10 23 -23z"/>
<path d="M66 1680 c-45 -14 -66 -39 -66 -80 0 -44 15 -59 64 -67 74 -12 149
49 131 106 -11 36 -77 57 -129 41z"/>
<path d="M1310 1081 c-54 -11 -78 -28 -100 -71 -23 -44 -25 -78 -7 -100 17
-22 75 -55 120 -70 20 -6 37 -18 37 -25 0 -7 3 -20 6 -28 8 -22 -114 -61 -193
-62 -53 0 -72 6 -143 42 -65 34 -85 41 -101 33 -23 -13 -25 -30 -4 -30 8 0 28
-19 45 -42 16 -24 49 -63 72 -87 24 -24 36 -40 28 -36 -32 14 67 -66 107 -87
24 -13 45 -29 48 -37 3 -8 -2 -51 -11 -96 -17 -81 -17 -82 5 -127 12 -26 42
-62 69 -83 46 -36 49 -37 117 -32 67 4 195 49 195 68 0 17 -21 19 -36 5 -35
-35 -25 -13 11 26 22 24 41 45 43 47 1 2 2 -1 2 -7 0 -6 -7 -18 -16 -26 -8 -9
-13 -20 -9 -26 9 -15 47 12 42 31 -3 9 0 23 5 30 7 10 8 9 3 -6 -5 -15 -3 -17
6 -8 9 9 9 19 0 43 -6 18 -8 37 -4 44 4 6 10 45 14 86 l6 75 1 -62 c1 -34 -3
-74 -8 -88 -7 -17 -7 -32 0 -43 8 -14 10 -14 11 -2 1 8 3 26 4 40 2 14 4 71 5
127 1 57 6 100 11 97 5 -3 9 3 9 13 0 14 2 15 9 4 7 -11 11 -9 21 9 10 18 10
21 -2 14 -7 -4 -6 0 4 12 9 10 27 52 39 92 17 52 29 72 41 72 26 0 30 15 8 35
-27 24 -68 12 -137 -41 -71 -56 -90 -60 -178 -45 -77 13 -81 15 -90 51 -5 21
1 29 39 53 90 56 100 112 33 182 -41 42 -47 45 -93 44 -27 -1 -65 -4 -84 -8z
m70 -71 c0 -5 -13 -10 -30 -10 -16 0 -30 5 -30 10 0 6 14 10 30 10 17 0 30 -4
30 -10z m-191 -470 c17 -7 31 -16 31 -21 0 -5 -21 3 -47 18 -71 39 -83 47 -83
55 0 4 15 -3 34 -16 19 -12 48 -29 65 -36z m472 9 c-9 -22 -10 -22 -10 -3 -1
11 2 24 6 27 12 12 14 0 4 -24z m-80 -212 c-14 -36 -77 -95 -126 -118 -62 -29
-109 -25 -145 12 -16 18 -30 38 -30 45 0 7 -3 21 -6 31 -4 10 6 -1 22 -24 46
-69 95 -74 181 -20 44 28 78 66 89 99 4 12 10 16 15 11 6 -6 6 -20 0 -36z"/>
<path d="M8053 979 c-39 -11 -95 -75 -112 -126 -6 -21 -15 -73 -18 -115 -10
-137 42 -218 141 -218 55 0 81 11 117 52 56 61 78 241 40 324 -31 69 -100 103
-168 83z m62 -99 c11 -18 6 -165 -7 -205 -9 -28 -19 -41 -35 -43 -18 -3 -23 3
-29 33 -17 94 39 266 71 215z"/>
<path d="M3634 972 l-142 -3 -5 -57 c-2 -31 -2 -61 0 -65 3 -5 28 -5 55 -2
l51 7 -4 -167 -4 -168 55 0 55 0 7 84 c3 46 6 125 7 176 l1 92 53 3 52 3 3 48
c2 26 -1 47 -7 47 -5 0 -15 1 -23 3 -7 1 -77 1 -154 -1z"/>
<path d="M3847 948 c-4 -18 -9 -121 -13 -229 l-7 -197 58 -3 c31 -2 61 -2 66
1 4 3 7 42 6 85 0 44 2 146 7 228 l8 147 -60 0 c-60 0 -60 0 -65 -32z m33 -2
c0 -8 -4 -18 -10 -21 -5 -3 -10 3 -10 14 0 12 5 21 10 21 6 0 10 -6 10 -14z"/>
<path d="M4080 971 l-85 -6 -10 -125 c-6 -69 -11 -170 -10 -225 l0 -99 120 3
c201 6 180 -1 183 64 l3 56 -93 3 c-87 3 -93 4 -96 25 -3 19 3 22 45 28 103
13 108 16 108 65 l0 45 -73 0 c-67 0 -72 2 -72 21 0 23 -2 22 137 39 l51 7 4
50 c1 27 1 52 -1 54 -5 5 -91 3 -211 -5z"/>
<path d="M4344 973 c-10 -7 -34 -298 -34 -410 l0 -43 60 0 60 0 1 113 c0 71 3
105 9 92 4 -11 23 -62 41 -113 l33 -92 58 0 58 0 1 108 c0 59 4 157 9 217 4
61 5 113 1 117 -3 4 -23 10 -44 13 -57 9 -67 -5 -67 -88 0 -79 -6 -78 -39 5
-13 32 -28 61 -35 67 -15 13 -99 23 -112 14z"/>
<path d="M4725 966 l-40 -12 -6 -94 c-4 -52 -8 -151 -10 -219 l-4 -124 79 2
c93 3 120 15 170 73 45 52 68 127 67 217 -1 121 -48 172 -156 170 -33 0 -78
-6 -100 -13z m129 -112 c32 -31 14 -141 -29 -188 -39 -42 -51 -30 -46 50 2 38
5 84 5 102 2 48 39 67 70 36z"/>
<path d="M5189 973 c-41 -5 -42 -7 -90 -128 -33 -84 -44 -117 -78 -229 -30
-99 -31 -96 43 -96 l64 0 6 34 c5 28 12 35 37 40 63 12 69 9 69 -34 l0 -40 65
0 c53 0 65 3 65 16 0 9 -14 93 -31 188 -29 159 -57 246 -78 246 -5 0 -15 1
-23 3 -7 2 -29 2 -49 0z m25 -225 c6 -34 5 -38 -14 -38 -23 0 -24 5 -9 49 13
38 14 37 23 -11z m106 -171 c0 -20 0 -20 -15 -1 -20 27 -20 51 0 34 8 -7 15
-22 15 -33z"/>
<path d="M5655 968 c-22 -6 -43 -15 -46 -20 -3 -4 -6 -50 -8 -101 -1 -50 -6
-141 -10 -202 -4 -60 -6 -114 -4 -120 2 -6 37 -8 91 -5 94 6 116 16 164 76 82
102 90 280 17 350 -26 25 -38 29 -97 31 -37 1 -85 -3 -107 -9z m118 -113 c26
-25 29 -69 10 -125 -21 -60 -67 -105 -83 -81 -4 8 -6 20 -4 26 7 18 12 63 13
127 1 56 4 60 43 67 4 0 13 -6 21 -14z"/>
<path d="M6043 973 c-48 -2 -85 -9 -91 -16 -11 -13 -36 -426 -27 -436 7 -6
206 -2 263 5 l42 6 0 54 0 54 -89 0 c-50 0 -92 4 -95 9 -13 20 8 40 47 46 118
18 108 12 105 64 l-3 46 -55 2 c-30 1 -63 2 -72 2 -11 1 -18 9 -18 20 0 16 10
21 58 26 31 4 75 10 97 14 l40 7 0 49 0 50 -60 1 c-33 0 -97 -1 -142 -3z"/>
<path d="M6476 958 c-3 -13 -8 -95 -11 -183 -4 -88 -9 -181 -11 -207 l-4 -48
65 0 65 0 1 63 1 62 14 -42 c8 -23 21 -44 29 -46 21 -9 54 4 60 22 3 9 13 26
23 38 17 22 17 22 14 -37 l-4 -60 67 0 66 0 -3 209 c-3 189 -5 211 -22 230
-31 35 -106 20 -106 -21 0 -6 -10 -34 -23 -62 -13 -28 -28 -62 -33 -75 -9 -22
-12 -19 -28 40 -33 124 -29 120 -118 134 -33 5 -38 3 -42 -17z"/>
<path d="M7045 971 c-25 -5 -34 -17 -63 -86 -42 -99 -100 -276 -108 -327 l-7
-38 66 0 66 0 3 32 c3 29 7 33 50 44 l46 11 7 -43 6 -44 47 -1 c48 -1 75 1 80
6 4 4 -36 225 -59 325 -10 46 -27 92 -37 102 -21 21 -57 28 -97 19z m35 -226
c0 -27 -4 -35 -19 -35 -16 0 -17 4 -7 35 6 19 14 35 18 35 5 0 8 -16 8 -35z
m105 -165 c7 -22 6 -23 -9 -11 -9 7 -16 23 -16 34 0 26 15 12 25 -23z"/>
<path d="M7694 961 c-109 -66 -159 -245 -102 -359 31 -63 64 -84 127 -84 60 0
105 28 148 93 l26 40 -28 29 c-16 17 -32 30 -35 30 -3 0 -20 -20 -38 -45 -56
-80 -99 -48 -89 67 6 66 41 148 64 148 13 0 14 -9 9 -50 l-7 -50 60 0 c44 0
60 4 65 16 9 24 7 90 -4 118 -22 60 -132 86 -196 47z"/>
<path d="M8270 972 c-6 -2 -10 -33 -10 -69 l0 -65 52 7 51 7 -7 -166 -6 -166
25 -1 c14 0 40 -1 58 -2 l32 -1 7 85 c3 46 6 125 7 176 l1 92 53 3 52 3 3 39
c2 21 -1 43 -6 48 -8 8 -289 17 -312 10z"/>
<path d="M8790 971 c-30 -5 -39 -13 -62 -61 -30 -60 -128 -347 -128 -374 0
-13 11 -16 64 -16 l64 0 6 34 c5 28 12 35 37 40 63 12 69 9 69 -34 l0 -40 65
0 c52 0 65 3 65 16 0 41 -63 363 -77 392 -9 19 -27 38 -40 43 -13 5 -25 8 -26
8 -1 -1 -18 -4 -37 -8z m24 -218 c6 -39 4 -43 -14 -43 -11 0 -20 3 -20 6 0 10
23 84 25 82 1 -2 5 -22 9 -45z m106 -178 c0 -18 -1 -18 -16 3 -8 12 -12 27 -8
33 8 14 24 -8 24 -36z"/>
<path d="M9135 971 c-78 -20 -115 -69 -115 -151 0 -49 3 -56 40 -92 23 -21 47
-38 55 -38 19 0 49 -46 41 -65 -7 -20 -29 -19 -78 5 -23 11 -43 20 -44 20 -5
0 -44 -72 -44 -80 0 -31 128 -62 195 -48 123 26 136 180 22 253 -51 31 -70 59
-62 86 11 34 35 23 35 -17 l0 -35 53 3 52 3 3 39 c4 45 -11 87 -37 103 -26 16
-81 23 -116 14z"/>
<path d="M7343 948 c-55 -39 -79 -132 -49 -187 7 -13 38 -40 67 -60 82 -55 76
-117 -7 -77 -19 9 -42 16 -52 16 -17 0 -42 -41 -42 -67 0 -23 80 -53 144 -53
104 0 156 56 143 154 -6 42 -16 54 -101 119 -29 22 -36 35 -34 55 5 39 26 39
30 0 3 -33 3 -33 58 -33 l55 0 0 35 c1 89 -30 120 -120 120 -46 0 -68 -5 -92
-22z"/>
<path d="M1 880 c0 -29 1 -32 10 -17 7 11 7 23 0 35 -9 14 -10 11 -10 -18z"/>
<path d="M1620 830 c0 -5 7 -10 15 -10 8 0 15 5 15 10 0 6 -7 10 -15 10 -8 0
-15 -4 -15 -10z"/>
<path d="M1020 646 c0 -2 8 -10 18 -17 15 -13 16 -12 3 4 -13 16 -21 21 -21
13z"/>
</g>
</svg>
