<?xml version="1.0" standalone="no"?>
<!DOCTYPE svg PUBLIC "-//W3C//DTD SVG 20010904//EN"
 "http://www.w3.org/TR/2001/REC-SVG-20010904/DTD/svg10.dtd">
<svg version="1.0" xmlns="http://www.w3.org/2000/svg"
 width="50px" height="50px" viewBox="0 0 512.000000 512.000000"
 preserveAspectRatio="xMidYMid meet">

<g transform="translate(0.000000,512.000000) scale(0.100000,-0.100000)"
fill="#000000" stroke="none">
<path d="M1590 5094 c-169 -45 -283 -219 -267 -409 20 -231 190 -441 474 -584
45 -23 96 -41 113 -41 46 0 212 90 309 166 243 192 336 454 237 669 -34 76
-97 139 -175 178 -58 28 -75 32 -147 31 -71 0 -90 -4 -155 -35 l-74 -35 -44
25 c-48 27 -138 51 -186 50 -16 0 -55 -7 -85 -15z m175 -183 c22 -10 54 -30
72 -45 41 -35 81 -42 114 -19 15 10 46 32 69 48 38 26 52 30 114 30 88 0 123
-22 162 -101 83 -170 -52 -404 -318 -549 l-68 -37 -65 34 c-207 105 -346 282
-347 443 -1 167 127 260 267 196z"/>
<path d="M292 3980 c-113 -21 -207 -93 -259 -198 -24 -49 -28 -69 -28 -142 0
-107 31 -182 106 -252 93 -87 116 -92 481 -96 277 -3 320 -1 348 13 53 28 63
92 20 135 -18 18 -34 20 -152 21 -100 0 -127 3 -108 10 145 59 200 137 200
283 l0 56 98 0 c91 0 101 -2 143 -29 27 -16 52 -43 62 -64 12 -25 64 -393 172
-1234 85 -659 155 -1208 155 -1219 0 -18 -8 -22 -49 -28 -27 -4 -81 -22 -120
-42 -162 -81 -252 -227 -252 -409 0 -259 206 -454 479 -455 43 0 52 -3 52 -17
0 -38 52 -126 105 -179 159 -159 410 -160 568 -2 199 199 141 532 -113 652
-60 29 -73 31 -170 31 -93 0 -112 -3 -162 -27 -108 -50 -185 -134 -221 -238
l-15 -45 -71 1 c-55 1 -84 8 -126 28 -212 105 -207 412 10 512 l50 24 1400 0
c1510 0 1465 -1 1557 53 56 32 115 97 138 151 10 22 134 519 276 1104 243
1000 257 1065 243 1090 -34 61 -101 66 -140 12 -11 -16 -112 -413 -269 -1060
-137 -569 -258 -1052 -267 -1073 -21 -49 -65 -83 -123 -96 -30 -7 -481 -11
-1322 -11 l-1278 0 -4 23 c-3 12 -75 568 -161 1235 -86 667 -163 1231 -171
1255 -32 93 -135 189 -234 217 -47 14 -780 22 -848 10z m134 -186 c-55 -20
-99 -56 -132 -108 -28 -44 -46 -58 -90 -71 -28 -7 -35 11 -24 61 20 89 91 134
210 133 l75 0 -39 -15z"/>
<path d="M2780 3883 c-71 -12 -121 -36 -136 -65 -30 -57 7 -121 69 -122 17 0
61 5 96 12 147 26 304 -27 450 -152 75 -63 107 -63 182 1 109 93 197 136 318
153 240 34 456 -128 517 -388 24 -101 15 -273 -20 -375 -92 -272 -290 -500
-611 -704 -83 -52 -277 -153 -295 -153 -6 0 -61 25 -123 56 -423 209 -724 532
-803 861 -24 97 -22 258 4 352 18 66 19 78 7 108 -8 19 -25 37 -40 43 -15 6
-131 10 -265 10 -237 0 -239 0 -266 -24 -39 -33 -39 -89 0 -122 26 -23 32 -24
205 -24 l178 0 -9 -57 c-22 -132 6 -332 68 -483 107 -265 343 -522 657 -717
109 -67 334 -181 374 -189 21 -4 61 11 169 65 516 254 825 582 936 989 28 103
31 316 5 412 -27 101 -98 237 -162 307 -222 246 -567 279 -863 83 l-73 -49
-49 35 c-146 105 -365 163 -520 137z"/>
<path d="M4125 807 c-130 -43 -223 -131 -265 -249 l-18 -53 -593 -3 c-547 -2
-594 -3 -612 -20 -30 -27 -40 -61 -26 -94 24 -59 10 -58 693 -58 l625 0 32
-61 c35 -65 79 -107 145 -139 32 -15 45 -28 54 -55 18 -54 59 -71 140 -57 134
24 247 108 306 227 27 55 29 69 29 170 0 102 -2 115 -31 175 -39 82 -106 150
-191 192 -57 28 -78 33 -157 35 -56 2 -106 -2 -131 -10z"/>
</g>
</svg>
